<?xml version="1.0" standalone="no"?>
<!DOCTYPE svg PUBLIC "-//W3C//DTD SVG 20010904//EN"
 "http://www.w3.org/TR/2001/REC-SVG-20010904/DTD/svg10.dtd">
<svg version="1.0" xmlns="http://www.w3.org/2000/svg"
 width="700.000000pt" height="700.000000pt" viewBox="0 0 700.000000 700.000000"
 preserveAspectRatio="xMidYMid meet">
<metadata>
Created by potrace 1.11, written by Peter Selinger 2001-2013
</metadata>
<g transform="translate(0.000000,700.000000) scale(0.100000,-0.100000)"
fill="#000000" stroke="none">
<path d="M4357 6734 c-394 -53 -749 -228 -1058 -521 l-56 -53 -1 -743 c-1
-408 -2 -930 -2 -1159 l0 -418 -52 24 c-151 70 -317 121 -453 141 -22 4 -51 9
-65 12 -60 13 -437 10 -530 -4 -201 -30 -398 -92 -583 -184 -87 -43 -153 -82
-167 -99 -3 -3 -21 -17 -40 -30 -125 -85 -325 -273 -435 -410 -186 -231 -319
-514 -361 -770 -2 -14 -6 -34 -9 -45 -23 -105 -23 -558 0 -628 2 -7 6 -28 9
-47 19 -121 88 -340 148 -469 53 -112 177 -293 299 -436 269 -316 622 -528
1004 -604 151 -29 185 -33 370 -36 167 -3 346 14 480 44 66 15 241 69 285 89
222 96 411 214 560 349 19 17 45 40 58 51 l22 20 0 1172 c0 645 1 1174 3 1176
2 2 41 -11 88 -29 77 -31 240 -81 299 -92 177 -34 236 -40 415 -40 203 0 280
9 448 51 230 57 528 198 712 337 126 95 339 346 458 537 90 147 201 412 222
532 3 17 8 34 10 37 2 4 6 27 9 51 4 25 9 56 11 70 16 86 22 307 11 420 -14
131 -63 335 -116 480 -39 106 -146 326 -170 350 -3 3 -20 28 -39 55 -144 209
-372 433 -570 560 -214 136 -411 207 -721 260 -72 13 -396 12 -493 -1z m468
-528 c346 -70 623 -245 868 -548 20 -25 37 -49 37 -52 0 -3 13 -24 29 -48 62
-94 118 -236 151 -383 38 -173 33 -464 -11 -628 -6 -23 -13 -49 -14 -57 -5
-23 -51 -150 -69 -193 -23 -54 -116 -187 -197 -282 -248 -294 -520 -444 -859
-474 -152 -13 -345 -4 -475 23 -110 23 -311 111 -432 189 l-73 47 0 1073 0
1074 58 40 c169 119 383 205 566 228 22 3 41 7 43 9 10 10 309 -4 378 -18z
m-2155 -2716 c174 -36 345 -105 501 -206 l70 -44 -2 -1088 -2 -1087 -32 -30
c-40 -38 -195 -130 -272 -161 -165 -68 -296 -90 -528 -88 -123 1 -170 6 -261
27 -219 50 -393 134 -559 268 -363 295 -533 639 -528 1071 1 99 7 149 37 310
21 112 68 237 125 330 261 433 636 686 1056 715 44 3 81 6 82 7 10 9 237 -9
313 -24z"/>
</g>
</svg>
